<svg width="268" height="309" viewBox="0 0 268 309" fill="none" xmlns="http://www.w3.org/2000/svg">
<path d="M47.9656 123.845C44.0934 123.845 40.6034 121.158 39.7408 117.221L38.184 110.135C36.1496 100.873 27.7926 94.1486 18.3117 94.1486H9.83674C5.18057 94.1486 1.40674 90.3747 1.40674 85.7186C1.40674 81.0624 5.18057 77.2886 9.83674 77.2886H18.3117C35.6522 77.2886 50.9358 89.5823 54.6534 106.518L56.2102 113.602C57.2077 118.152 54.3331 122.645 49.7837 123.645C49.1739 123.783 48.5642 123.845 47.9656 123.845Z" fill="#472BAA"/>
<path d="M182.725 261.479C182.711 261.096 182.666 260.72 182.666 260.335C182.666 254.518 184.445 249.109 187.485 244.619H121.548C124.589 249.106 126.365 254.518 126.365 260.335C126.365 260.72 126.323 261.096 126.306 261.479H182.725Z" fill="#472BAA"/>
<path d="M70.1648 260.335C70.1648 254.487 71.9632 249.052 75.0346 244.551C71.0781 244.205 67.9562 240.912 67.9562 236.868C67.9562 232.594 71.4322 229.118 75.7062 229.118C80.3623 229.118 84.1362 225.344 84.1362 220.688C84.1362 216.032 80.3623 212.258 75.7062 212.258C62.1339 212.258 51.0962 223.299 51.0962 236.868C51.0962 248.541 59.2705 258.32 70.1929 260.832C70.1873 260.666 70.1648 260.503 70.1648 260.335Z" fill="#472BAA"/>
<path d="M216.864 229.121H71.0779C67.1187 229.121 63.6933 226.367 62.8446 222.501L39.7408 117.224C39.1929 114.732 39.8055 112.124 41.4043 110.135C43.006 108.145 45.4198 106.987 47.9741 106.987H245.877C248.274 106.987 250.555 108.007 252.154 109.792C253.75 111.576 254.518 113.956 254.256 116.339L244.607 204.255C243.053 218.429 231.124 229.121 216.864 229.121ZM77.8585 212.261H216.864C222.512 212.261 227.232 208.026 227.848 202.412L236.469 123.844H58.4554L77.8585 212.261Z" fill="#472BAA"/>
<path d="M152.703 229.122C148.047 229.122 144.273 225.348 144.273 220.692V115.415C144.273 110.759 148.047 106.985 152.703 106.985C157.359 106.985 161.133 110.759 161.133 115.415V220.692C161.133 225.348 157.359 229.122 152.703 229.122Z" fill="#472BAA"/>
<path d="M193.141 229.121C192.911 229.121 192.678 229.113 192.442 229.093C187.802 228.708 184.349 224.639 184.731 220L193.394 114.723C193.776 110.087 197.8 106.625 202.487 107.013C207.127 107.395 210.58 111.464 210.198 116.106L201.535 221.382C201.175 225.786 197.486 229.121 193.141 229.121Z" fill="#472BAA"/>
<path d="M112.255 229.121C108.012 229.121 104.359 225.926 103.887 221.61L92.3353 116.333C91.8267 111.705 95.1678 107.544 99.7959 107.035C104.424 106.529 108.586 109.868 109.094 114.496L120.646 219.772C121.155 224.397 117.814 228.565 113.186 229.073C112.874 229.104 112.565 229.121 112.255 229.121Z" fill="#472BAA"/>
<path d="M240.1 176.482H59.5262C54.87 176.482 51.0962 172.708 51.0962 168.052C51.0962 163.395 54.87 159.622 59.5262 159.622H240.102C244.759 159.622 248.532 163.395 248.532 168.052C248.532 172.708 244.759 176.482 240.1 176.482Z" fill="#472BAA"/>
<path d="M98.2677 279.993C109.131 279.993 117.938 271.187 117.938 260.323C117.938 249.46 109.131 240.653 98.2677 240.653C87.4042 240.653 78.5977 249.46 78.5977 260.323C78.5977 271.187 87.4042 279.993 98.2677 279.993Z" fill="#382BAA"/>
<path d="M210.752 279.993C221.615 279.993 230.422 271.187 230.422 260.323C230.422 249.46 221.615 240.653 210.752 240.653C199.888 240.653 191.082 249.46 191.082 260.323C191.082 271.187 199.888 279.993 210.752 279.993Z" fill="#382BAA"/>
<path d="M45.232 73.792C41.488 73.792 38.008 73.144 34.792 71.848C31.576 70.504 28.744 68.656 26.296 66.304C23.896 63.904 22 61.144 20.608 58.024C19.264 54.856 18.592 51.448 18.592 47.8C18.592 44.152 19.264 40.768 20.608 37.648C22 34.48 23.896 31.72 26.296 29.368C28.744 26.968 31.576 25.12 34.792 23.824C38.008 22.48 41.488 21.808 45.232 21.808C48.976 21.808 52.456 22.48 55.672 23.824C58.936 25.12 61.768 26.968 64.168 29.368C66.616 31.72 68.512 34.48 69.856 37.648C71.2 40.768 71.872 44.152 71.872 47.8C71.872 51.448 71.2 54.856 69.856 58.024C68.512 61.144 66.616 63.904 64.168 66.304C61.768 68.656 58.936 70.504 55.672 71.848C52.456 73.144 48.976 73.792 45.232 73.792ZM45.232 64.216C47.536 64.216 49.648 63.808 51.568 62.992C53.488 62.128 55.168 60.976 56.608 59.536C58.048 58.048 59.176 56.296 59.992 54.28C60.808 52.264 61.216 50.104 61.216 47.8C61.216 45.448 60.808 43.288 59.992 41.32C59.176 39.304 58.048 37.576 56.608 36.136C55.168 34.648 53.488 33.496 51.568 32.68C49.648 31.816 47.536 31.384 45.232 31.384C42.976 31.384 40.888 31.816 38.968 32.68C37.048 33.496 35.368 34.648 33.928 36.136C32.488 37.576 31.36 39.304 30.544 41.32C29.728 43.288 29.32 45.424 29.32 47.728C29.32 50.08 29.728 52.264 30.544 54.28C31.36 56.296 32.488 58.048 33.928 59.536C35.368 60.976 37.048 62.128 38.968 62.992C40.888 63.808 42.976 64.216 45.232 64.216ZM79.1063 73V22.6H103.73C107.138 22.6 110.138 23.272 112.73 24.616C115.37 25.912 117.41 27.736 118.85 30.088C120.338 32.44 121.082 35.152 121.082 38.224C121.082 41.44 120.194 44.272 118.418 46.72C116.642 49.168 114.266 50.992 111.29 52.192L122.45 73H110.786L100.922 53.704H89.5463V73H79.1063ZM89.5463 45.136H102.794C105.146 45.136 107.018 44.512 108.41 43.264C109.85 42.016 110.57 40.384 110.57 38.368C110.57 36.352 109.85 34.72 108.41 33.472C107.018 32.224 105.146 31.6 102.794 31.6H89.5463V45.136ZM152.742 73.792C148.998 73.792 145.518 73.144 142.302 71.848C139.086 70.504 136.254 68.656 133.806 66.304C131.358 63.904 129.438 61.144 128.046 58.024C126.702 54.856 126.03 51.448 126.03 47.8C126.03 44.152 126.702 40.768 128.046 37.648C129.438 34.48 131.334 31.72 133.734 29.368C136.134 26.968 138.942 25.12 142.158 23.824C145.422 22.48 148.902 21.808 152.598 21.808C156.774 21.808 160.71 22.648 164.406 24.328C168.102 25.96 171.15 28.264 173.55 31.24L166.278 37.936C164.55 35.776 162.51 34.144 160.158 33.04C157.806 31.936 155.286 31.384 152.598 31.384C150.342 31.384 148.254 31.816 146.334 32.68C144.414 33.496 142.734 34.648 141.294 36.136C139.854 37.576 138.726 39.304 137.91 41.32C137.142 43.288 136.758 45.448 136.758 47.8C136.758 50.152 137.166 52.336 137.982 54.352C138.798 56.368 139.926 58.12 141.366 59.608C142.854 61.048 144.558 62.2 146.478 63.064C148.446 63.88 150.582 64.288 152.886 64.288C155.286 64.288 157.446 63.856 159.366 62.992C161.286 62.08 162.894 60.832 164.19 59.248C165.534 57.616 166.422 55.792 166.854 53.776H151.95V44.704H178.014V47.872C178.014 51.616 177.366 55.072 176.07 58.24C174.822 61.36 173.07 64.096 170.814 66.448C168.558 68.752 165.894 70.552 162.822 71.848C159.75 73.144 156.39 73.792 152.742 73.792ZM183.835 56.656V48.304H210.907V56.656H183.835ZM228.835 63.712H237.619C239.875 63.712 241.963 63.328 243.883 62.56C245.851 61.744 247.555 60.616 248.995 59.176C250.483 57.736 251.611 56.056 252.379 54.136C253.195 52.216 253.603 50.128 253.603 47.872C253.603 45.616 253.195 43.528 252.379 41.608C251.563 39.64 250.435 37.936 248.995 36.496C247.555 35.056 245.851 33.928 243.883 33.112C241.963 32.296 239.875 31.888 237.619 31.888H228.835V63.712ZM218.395 73V22.6H237.763C241.555 22.6 245.059 23.248 248.275 24.544C251.491 25.792 254.299 27.568 256.699 29.872C259.099 32.176 260.971 34.864 262.315 37.936C263.707 41.008 264.403 44.32 264.403 47.872C264.403 51.472 263.731 54.784 262.387 57.808C261.043 60.832 259.147 63.496 256.699 65.8C254.299 68.056 251.491 69.832 248.275 71.128C245.059 72.376 241.555 73 237.763 73H218.395Z" fill="#382BAA"/>
</svg>
